<svg width="318" height="41" viewBox="0 0 318 41" fill="none" xmlns="http://www.w3.org/2000/svg">
<path d="M1.18512 34.5722C0.910683 34.3477 0.62793 33.9651 0.62793 33.4661C0.62793 32.6927 1.29324 32.0274 2.06666 32.0274C2.45753 32.0274 2.79017 32.1937 3.0064 32.3601C6.8818 35.8529 10.7655 37.3998 16.0797 37.3998C21.8928 37.3998 25.8846 34.1314 25.8846 29.6988V29.5907C25.8846 25.4908 23.7224 23.1123 14.9154 21.3326C5.60941 19.4448 1.84212 16.2929 1.84212 10.4216V10.3135C1.84212 4.55028 7.10635 0.117676 14.3083 0.117676C19.5143 0.117676 23.1153 1.4483 26.6663 4.10952C26.9408 4.33407 27.2734 4.71661 27.2734 5.2738C27.2734 6.04722 26.6081 6.71254 25.8347 6.71254C25.502 6.71254 25.1694 6.6044 24.895 6.37986C21.5185 3.77686 18.1338 2.72069 14.2002 2.72069C8.49517 2.72069 4.72788 5.98901 4.72788 10.0307V10.1389C4.72788 14.2388 6.83191 16.7337 16.0298 18.6132C25.0031 20.4428 28.7704 23.6529 28.7704 29.308V29.4161C28.7704 35.6783 23.398 39.9944 15.9133 39.9944C10.1085 40.0028 5.56782 38.1732 1.18512 34.5722Z" fill="black"/>
<path d="M38.1761 1.91307C38.1761 1.13965 38.8414 0.474365 39.6148 0.474365H39.8892C40.4963 0.474365 40.9454 0.807018 41.3279 1.306L56.4553 23.5771L71.5827 1.306C71.9154 0.807018 72.4144 0.474365 73.0215 0.474365H73.2959C74.0693 0.474365 74.7346 1.13965 74.7346 1.91307V38.2055C74.7346 38.9789 74.0693 39.6442 73.2959 39.6442C72.5225 39.6442 71.8571 38.9789 71.8571 38.2055V5.73859L57.6196 26.4545C57.287 26.9535 56.8961 27.1781 56.3971 27.1781C55.8981 27.1781 55.5073 26.9535 55.1746 26.4545L40.9371 5.73859V38.2637C40.9371 39.0372 40.33 39.6525 39.5482 39.6525C38.7748 39.6525 38.1594 39.0455 38.1594 38.2637V1.91307H38.1761Z" fill="black"/>
<path d="M83.1672 37.648L99.7333 1.7465C100.124 0.914871 100.673 0.357666 101.671 0.357666H101.779C102.777 0.357666 103.326 0.914871 103.717 1.7465L120.225 37.5399C120.391 37.8726 120.449 38.147 120.449 38.4298C120.449 39.1533 119.842 39.7604 119.06 39.7604C118.395 39.7604 117.896 39.2614 117.622 38.6543L113.081 28.6831L101.671 3.64262L85.6621 38.7125C85.3876 39.3778 84.9385 39.7687 84.2732 39.7687C83.5497 39.7687 82.9426 39.2115 82.9426 38.5462C82.9426 38.3134 83.0008 37.9807 83.1672 37.648Z" fill="black"/>
<path d="M128.674 1.99611C128.674 1.22269 129.339 0.557373 130.113 0.557373H144.957C149.722 0.557373 153.548 2.05432 155.868 4.38289C157.698 6.21248 158.804 8.81549 158.804 11.5848V11.6929C158.804 18.1714 153.98 21.8888 147.444 22.7703L158.471 37.066C158.746 37.3987 158.912 37.7313 158.912 38.064C158.912 38.8374 158.188 39.5609 157.415 39.5609C156.858 39.5609 156.475 39.2283 156.143 38.7875L144.234 23.2776H131.543V38.1222C131.543 38.8956 130.878 39.5609 130.104 39.5609C129.331 39.5609 128.666 38.8956 128.666 38.1222V1.99611H128.674ZM144.633 20.6663C151.111 20.6663 155.935 17.3979 155.935 11.8011V11.6929C155.935 6.48692 151.835 3.21861 144.799 3.21861H131.56V20.6746H144.633V20.6663Z" fill="black"/>
<path d="M177.757 3.21861H165.349C164.626 3.21861 164.019 2.61151 164.019 1.88799C164.019 1.16447 164.626 0.557373 165.349 0.557373H193.051C193.774 0.557373 194.381 1.16447 194.381 1.88799C194.381 2.61151 193.774 3.21861 193.051 3.21861H180.643V38.1222C180.643 38.8956 179.978 39.5609 179.204 39.5609C178.431 39.5609 177.765 38.8956 177.765 38.1222V3.21861H177.757Z" fill="black"/>
<path d="M243.897 20.1671V20.059C243.897 9.58871 251.49 0 263.066 0C268.879 0 272.705 1.60503 276.306 4.32447C276.638 4.59891 276.863 4.9898 276.863 5.48878C276.863 6.26219 276.198 6.92748 275.424 6.92748C275.2 6.92748 274.867 6.81937 274.534 6.53662C271.54 4.20805 268.272 2.60301 262.9 2.60301C253.477 2.60301 246.891 10.5783 246.891 19.9425V20.059C246.891 30.0884 253.153 37.5648 263.515 37.5648C268.447 37.5648 273.046 35.519 275.873 33.1322V21.9967H263.798C263.074 21.9967 262.467 21.3896 262.467 20.6661C262.467 19.9425 263.074 19.3354 263.798 19.3354H277.204C277.977 19.3354 278.643 20.0007 278.643 20.7742V33.4649C278.643 34.0221 278.252 34.6292 277.645 35.1281C273.985 37.9557 269.17 40.1179 263.407 40.1179C251.157 40.1179 243.897 31.0864 243.897 20.1671Z" fill="#D5A368"/>
<path d="M289.288 38.006V2.1045C289.288 1.33109 289.953 0.665771 290.726 0.665771H315.767C316.49 0.665771 317.097 1.27287 317.097 1.99639C317.097 2.71991 316.49 3.327 315.767 3.327H292.165V18.5625H313.272C313.995 18.5625 314.602 19.1696 314.602 19.8931C314.602 20.6166 313.995 21.2237 313.272 21.2237H292.165V36.7919H316.041C316.765 36.7919 317.372 37.399 317.372 38.1225C317.372 38.846 316.765 39.4531 316.041 39.4531H290.718C289.953 39.4531 289.288 38.7878 289.288 38.006Z" fill="#D5A368"/>
<path d="M202.856 37.648L219.422 1.7465C219.813 0.914871 220.362 0.357666 221.36 0.357666H221.468C222.466 0.357666 223.015 0.914871 223.406 1.7465L239.913 37.5399C240.08 37.8726 240.138 38.147 240.138 38.4298C240.138 39.1533 239.531 39.7604 238.749 39.7604C238.084 39.7604 237.585 39.2614 237.31 38.6543L232.77 28.6831L221.36 3.64262L205.351 38.7125C205.076 39.3778 204.627 39.7687 203.962 39.7687C203.238 39.7687 202.631 39.2115 202.631 38.5462C202.64 38.3134 202.69 37.9807 202.856 37.648Z" fill="#D5A368"/>
</svg>
